<svg id="Layer_1" data-name="Layer 1" xmlns="http://www.w3.org/2000/svg" width="311.26" height="321.28" viewBox="0 0 311.26 321.28"><title>Jagermeister logo - Brandlogos.net</title><path d="M371.06,371.85c.18.18.26.63.59.38a8.83,8.83,0,0,0,.84-.83c.12-.11.06-.29,0-.5a.84.84,0,0,0-.47-.41c-.21-.09-.63.06-.7-.08s-.09-.34-.31-.35-.41-.14-.6.09-.46.15-.5.47-.08.69,0,.76a2.3,2.3,0,0,0,.58.37c.25.08.38-.09.57.09m-17.72-2.93a3.84,3.84,0,0,0,1.89,1.1c1,.12,1.89-.25,2.2-.06s.43.67.92.55a2,2,0,0,0,.92-.8,3.05,3.05,0,0,0-1.28-.49,3.89,3.89,0,0,1-2-.55,28.06,28.06,0,0,1-3.24-2.81,11.49,11.49,0,0,0-1.22-1.53s-.49-.73-1-.8-1.34.24-1.1.61,1,1.47,1,1.47L352,367.7Zm30,36.21a32.52,32.52,0,0,0,5.86-.12,19.49,19.49,0,0,0,2.56-.73c.49-.18.85.06.73-.8s-1-1.22-1.71-1.46a16.13,16.13,0,0,0-2.69-.55c-.55-.06-5.86,0-6.23.12s-1.59.73-2.08.85-1.28.37-1.34.8.06,1.41.67,1.59a20.17,20.17,0,0,0,2.63.31,12.89,12.89,0,0,1,1.59,0M368.18,405s.79.67.67,3.05-.55,3.3-.55,4.21-.18,3.85-.18,3.85-.18,2.63-.61,1.59a10,10,0,0,1-.49-3.24,61.54,61.54,0,0,1-.18-7.33,13.53,13.53,0,0,1,.79-2.07Zm3.62,30.88-.12-9c-.06-.09-.51-.64-.8-.64-.11,0-.18.09-.22.27-.18.84-.49,3.57-.49,3.6,0,.44-.14,4.37-.76,4.5a3.36,3.36,0,0,1-.67.07c-.73,0-1.09-.35-1.09-1s.1-2.09.18-3.28c.05-.73.1-1.42.12-1.91,0-.68.41-2.83.78-4.91.32-1.83.66-3.73.75-4.56.07-.66.15-1.75.24-2.9.15-2,.31-4.07.43-4.49s.51-2.47.77-3.81c.14-.75.25-1.29.27-1.38a1.37,1.37,0,0,0,0-.33c0-.28-.06-.64.07-.8s.23-.1.43,0c.76.38,1,1.1,1.24,2.47a12.54,12.54,0,0,1-.08,3.16c-.06.52-.1,1-.1,1.3,0,.51-.13,1.58-.26,2.62s-.23,1.91-.23,2.32,0,1.41,0,2.22,0,1.26,0,1.5V421c0,2,.1,3.09.34,3.19a1.33,1.33,0,0,1,.27.17.78.78,0,0,0,.4.2c.24,0,.45-.39.62-1.2a44.88,44.88,0,0,0,.61-4.86c.07-.75.13-1.4.18-1.85l.05-.4a39.08,39.08,0,0,1,1.11-6.21c.39-.93,1-2,1.45-2a.28.28,0,0,1,.21.1c.39.45.49,4,.43,4.43,0,.14,0,.84,0,1.73a35.64,35.64,0,0,1-.12,4.87,20.61,20.61,0,0,0-.43,2.44v.08l-.06-.06a1.31,1.31,0,0,0-.47-.23l-.12,0a1.88,1.88,0,0,0-.59-.14c-.3,0-.45.21-.45.64a37.6,37.6,0,0,1-.86,4.65c0,.17-.31,4.34-.43,5s-.61,4.18-.61,4.21v0h0Zm4.07-1.51s.12,2,.61,2.38,1,1.16,1.34.61a33.23,33.23,0,0,0,.43-5.07s.43-4.46.37-4.82-.18-1.28-.61-1a4.56,4.56,0,0,0-1.41,1.83,13.32,13.32,0,0,0-.43,2,17.16,17.16,0,0,0-.24,2.69c0,.24-.06,1.34-.06,1.34M382,424.5s-.31,4.58-.43,5.43a20,20,0,0,0-.43,3.12c.06.73.37,2.2.12,2.63s-1,1-1.28.61a11.71,11.71,0,0,1-.61-2.08s.24-5.19.37-6.59.12-7.15.12-7.57-.43-3.54-.43-3.79.37-2,.37-2,.55-1.65.79-.73.79,2.32.79,2.32a19.57,19.57,0,0,1,.67,3.11c0,.79-.06,5.49-.06,5.49m2.87-12.4a38.82,38.82,0,0,1,.73,4.58c.12,1.83.12,5.25.06,5.56s.06,3.79.06,3.79-.37,1.77-.43,2.26a23.82,23.82,0,0,0-.24,3.6,11.67,11.67,0,0,1,.49,2.26c-.06.37-.3,1.1-1,.8s-1.47-.67-1.53-1.41a11.67,11.67,0,0,1,.06-2.93c.18-.61.43-4.95.49-5.25a32.26,32.26,0,0,0,.31-3.24,35.81,35.81,0,0,0-.24-5.44,15.07,15.07,0,0,1-.49-3c.06-.49-.31-2.32-.18-2.81s.92-1.53,1.22-.85.73,2.07.73,2.07m3.79-1.83a5.43,5.43,0,0,1,.43,1.46c0,.37.31.73.67.18a3.06,3.06,0,0,0,.55-1.28c.06-.37.06-1.83.37-1.22a5.24,5.24,0,0,1,.37,1.65l.31,4.7s.12,1.46.31,2.63.49,3.54.49,3.54.37,5.31.43,5.62.31,3.17.31,3.17a17.87,17.87,0,0,1-.24,3.48.58.58,0,0,1-.85.12c-.43-.24-.67-2.08-.67-3s.06-3.3.06-3.3-.49-.31-.43-2.2a15.78,15.78,0,0,0-.12-2.93l-.31-.55a19.84,19.84,0,0,0-.24-2.38,6.2,6.2,0,0,1-.24-.61l-.12-1.59s-.67-.67-.55,0-.06,4.09-.06,4.09a3.58,3.58,0,0,1,.31,1.47,11.27,11.27,0,0,1-.31,2.2,27,27,0,0,0,.18,3.6s-.18,1.71-.18,2v2.32s-.37,1.41-.67,1.53-.73.61-1.1.18a2,2,0,0,1-.43-1.9c.18-.92.43-7.88.43-7.88s.18-6.9.12-7.15-.31-5.56-.31-5.56a9.85,9.85,0,0,1-.43-2.63,1.65,1.65,0,0,1,1.4-.67c.37.12.37.37.55.86M394.8,407a6.71,6.71,0,0,1,1.22,3.6c-.12,1,1,4.15,1.1,4.95s.73,3.48.67,4,.55,4.4.55,4.4l.73,1.47.31,4.95s-.31,1.53-.73,1.65-1.22.18-1.34-.06a27,27,0,0,1-.18-3.91,5.2,5.2,0,0,0-.31-2.08c-.24-.49-.55-2.93-.67-3.24s-.12-3.66-.31-4-2-7.69-2-7.69-.12-3.48.37-3.85.06-.86.61-.12m4.76,4.59a1.22,1.22,0,0,1,.48.07,2.69,2.69,0,0,1,1.41,1.81c.18,1.16.24,4.52.24,4.52a25.86,25.86,0,0,1,.79,4.95c-.12,1.22-.18,2.5-.18,2.5s-.55.18-.73-1.28-.79-4.52-.79-4.52a31.42,31.42,0,0,0-1.22-4.27c-.49-1-.91-1-.79-2a7.23,7.23,0,0,1,.2-1.79c.11-.17.6,0,.6,0m.55-4.84s-.31,1.22.67.85,1-1,1.22-2.26.24-2.44-.37-2.5-.86.12-.92.49a8.33,8.33,0,0,1-.18,1.77,9.42,9.42,0,0,0-.43,1.65m2.5-10.56s2,.12,2,2.81a21.18,21.18,0,0,0,.31,4.09l-.86,2.14a7.55,7.55,0,0,1-.85-2c-.12-.8-.43-2.63-.43-3.18s-.18-3.85-.18-3.85M406,381.68s0-.49.25-.65c.52-.38.69.69.73,1.12a17.71,17.71,0,0,1-.09,3.53c-.09.48-.23,1.1-.31,1.73a5.07,5.07,0,0,0,0,1.85,20.2,20.2,0,0,0,.78,2.13c.32.77.63,1.48.75,1.77a13.84,13.84,0,0,1,1,3.92c.09.93.23,1.82.33,2.6a9.42,9.42,0,0,1,.12,1.89,2.82,2.82,0,0,1-.18.69c-.09.25-.19.5-.27.75a2.39,2.39,0,0,0,0,1.78,5.85,5.85,0,0,0,.83,1.4c.26.33.5.57.69.83a29.42,29.42,0,0,1,1.81,4.52c.21.88,1.4,5.46,1.71,7a39.31,39.31,0,0,1,.73,4.79,13.57,13.57,0,0,1-.08,1.51,3.79,3.79,0,0,1-.12.64c-.06.18-.12.25-.14.26-.29.14-1.06.56-1.36.73l-.14-.19s-.61-.79-1-1.4,0-4.66,0-4.71l-.25-2-.27.5-.09.11a.63.63,0,0,1-.37.19c-.16,0-.14-.84-.12-1l-.92-3.78c-.06-.25-1-3.12-1.16-3.68-.1-.3-.25-.46-.43-.5a.41.41,0,0,0-.21,0l-.16.08s-.32,2.57-.44,3.24a8.75,8.75,0,0,0,.05,1.82c.07.71.16,1.4.19,1.65a10.58,10.58,0,0,1-.08,1.64,9.27,9.27,0,0,1-.14.95,2.34,2.34,0,0,1-.09.32.42.42,0,0,1-.06.12.61.61,0,0,1-.12-.22,6.2,6.2,0,0,1-.23-.9c-.12-.61-.67-3.92-.8-4.35-.06-.21-.17-.9-.27-1.64s-.21-1.54-.28-1.94a26.35,26.35,0,0,1,.36-4.88,5.37,5.37,0,0,1,.29-.8c.11-.26.25-.55.44-1a12.32,12.32,0,0,0,.32-3.92,40.18,40.18,0,0,0-.8-3.94c-.18-.61-1.1-2.93-1.22-3.36a28.21,28.21,0,0,1,.07-3.78c0-.28.11-1.36.19-2.43s.18-2.09.23-2.24a9.78,9.78,0,0,0,.18-1.43c0-.59.08-1.26.08-1.26" transform="translate(-228.37 -223.36)" style="fill:#ff4600"/><path d="M398.83,384.27a25,25,0,0,0,3.15-2.68,9.06,9.06,0,0,0,1.64-2.76c.09-.52.17-1.77-1-.82a24.05,24.05,0,0,1-2.63,1.6,5.31,5.31,0,0,0-.69,1.25c-.13.22-.78,2.73-.78,2.73Zm-26.78-4.47s-1,.88-1.77.62a10.57,10.57,0,0,1-3.06-2.24c-.3-.52-.7-1.94-1-1.73a1.91,1.91,0,0,0-.57.9,2.17,2.17,0,0,0,.14.87c.17.82.2,2.81,1,3.47s1.56,2,2.55,1.87a5.3,5.3,0,0,0,2.48-.85c.09-.26.17-2.91.17-2.91m-5.22-6.18,0,.24a3.18,3.18,0,0,0,.08.41,3.52,3.52,0,0,0,1.27,1.79,5.23,5.23,0,0,1,.5.38l.51.42a3.23,3.23,0,0,0,1.19.64,11.25,11.25,0,0,0,1.94.17h1.2a8.64,8.64,0,0,1,.93,1.33,6.52,6.52,0,0,1,.4,1c.1.29.15.52.15.52l.56.86c0,.06,0,.12.14.16h.11l.11,0a1.88,1.88,0,0,0,1.38-1.9c-.09-.74-.91-4.54-1-5.15a7,7,0,0,0-.29-.84h3.82a10.05,10.05,0,0,0,.79,2.69,2.59,2.59,0,0,0,1.22.37c.79.06-.12.55-.37,1.16s-.24,1.65.12,1.89a1,1,0,0,1,.37.79,7.26,7.26,0,0,0-.79,1.41c-.18.55,1.22,1.16,1.65,1s1.34-2.44,1.41-5.92c0-2.36.22-3.06.58-3.37h1.07a10.29,10.29,0,0,1-.13,1.78c0,.49.12,3.42.12,3.42s.12,2.81.24,3.24.73.61,1.46,1,1-.18,1-.18.18-.67-.18-.92a2.07,2.07,0,0,1-.79-1.22,2,2,0,0,1,.15-.92s1.17-.15,1.12-.46c-.07-.46-.72-1.19-.79-1.8s.61-.55.61-.55c.37-.06.73-1.41,1.22-2.51a2.49,2.49,0,0,1,.67-.92h3.7c-.62,1.53-1.64,4.52-1.85,5.09a18.67,18.67,0,0,0,0,3.83l1.08.13a8.49,8.49,0,0,1,.75-2.29,23.42,23.42,0,0,1,2-3,16.29,16.29,0,0,0,3.58-.21,8,8,0,0,0,2.58-2.08,9.37,9.37,0,0,1,1-1.48h3.69c0,.38,0,.65,0,.65s-.18.09.28.09a14.35,14.35,0,0,0,4.54-.74h2.68a2,2,0,0,0-.19.4c0,.15-.24.33.21.36a8.9,8.9,0,0,0,3-.76h3.61a21.79,21.79,0,0,1-1.94,1.59,35.12,35.12,0,0,1-6.1,2.4,18.43,18.43,0,0,1-3.67.47c-1.08,0-3.1-.25-3.3-.91a4.37,4.37,0,0,1-.22-.76H405a24.12,24.12,0,0,1-.18,5.29,10.52,10.52,0,0,1-1.09,3.28,18.18,18.18,0,0,0-.82,1.75,16.16,16.16,0,0,1-1.71,3.33,8.87,8.87,0,0,1-3.15,2.81,2.07,2.07,0,0,1-.93-.7l-.35-.52a3.39,3.39,0,0,0-.35-.44c-.53-.53-.92-.22-1,.14a.64.64,0,0,0,.07.38,4,4,0,0,0,.21.39l.24.39a2.29,2.29,0,0,1,.15.28,15.39,15.39,0,0,1,.78,2.82,8.41,8.41,0,0,1-.11,3.41,4.28,4.28,0,0,1-2.26,1.86,10.4,10.4,0,0,1-2.87-.31,4,4,0,0,1-1.14-.46c-.36-.2-.67-.43-.94-.61-.06-.13,0-.2.1-.28a3,3,0,0,1,.37-.21l.31-.14a9.45,9.45,0,0,0,2.13-1.52,2,2,0,0,0,.25-1.19c0-.43-.07-.88-.1-1.19a13.07,13.07,0,0,0-.81-2.8.61.61,0,0,0-.73-.3,1.54,1.54,0,0,0-.29.11l-.11.06c-.17.07-2.07.85-2.29.9s-1.49,0-3,0l-3.37-.05a6.57,6.57,0,0,1-2.47-.82.65.65,0,0,0-.81,0,2,2,0,0,0-.53.63,2.22,2.22,0,0,0-.18.54c-.05.21-.1.47-.15.73a7.18,7.18,0,0,1-.35,1.37,2.18,2.18,0,0,0,.28,1.59,7.4,7.4,0,0,0,.71,1.21,2.86,2.86,0,0,0,.86.54l.55.27a4.65,4.65,0,0,1,.47.26c.34.22,0,.82-.13,1a18.22,18.22,0,0,1-3.32.65,4.27,4.27,0,0,1-2.63-1.17,7.11,7.11,0,0,1-.93-3.13,3.8,3.8,0,0,1,.29-1.37c.18-.49.37-.91.43-1.06a6.7,6.7,0,0,0-.24-2.35c-.11-.52-.41-.6-.65-.26a6.83,6.83,0,0,0-.18.67l-.26.6a7.43,7.43,0,0,1-.68,1.11c-.08.07-.2-.3-.36-.43l-.29-.24A1.5,1.5,0,0,0,371,393c-.52-.15-1.35-1.7-1.73-2.59-.18-.43-.44-.89-.68-1.39a5.79,5.79,0,0,1-.53-1.62c0-.31-.08-.57-.12-.8a3.14,3.14,0,0,0-.16-.62,1.31,1.31,0,0,0-.87-.79c-.54-.19-1,1.87-1.14,2.39a35,35,0,0,0-.17,5.29c0,1.59.05,1.82.18,3.84a16.55,16.55,0,0,1-.26,4.52c-.2.24-1.23.05-1.55-.2,0,0-.06-.08-.09-.22a3.63,3.63,0,0,1,0-.57c0-.49,0-1.16,0-2a1.53,1.53,0,0,0-.19-.85c-.19-.23-.42-.08-.52,0a2.76,2.76,0,0,0-.52,1,6.18,6.18,0,0,0-.06,2.91,37.26,37.26,0,0,1,1.58,6.17c0,1.16.8,8.32.8,8.32,0,.38-.07,7.66.08,9a10.73,10.73,0,0,1-.52,4c-.1-.14-1.34.05-1.52-.25a1.18,1.18,0,0,1-.21-.63c0-.22,0-.48,0-.94a7.4,7.4,0,0,1,.1-1.45l.1-.65a3.8,3.8,0,0,0,0-.45,10.06,10.06,0,0,1,.41-2.73,9.07,9.07,0,0,0,.1-2.7c-.05-1.15-.14-2.29-.14-2.57s-.24-1.44-.46-2.52c-.11-.55-.23-1.09-.31-1.53a8.24,8.24,0,0,1-.14-.84,13.19,13.19,0,0,0-.81-3.55c-.16-.33-.43-.32-.6-.06a3.25,3.25,0,0,0-.32.85c-.18.7-.34,1.6-.43,2a9.34,9.34,0,0,0-.13,1.12l-.13,1.77a21.07,21.07,0,0,1-.47,3.52,31.27,31.27,0,0,0-.63,3.68c-.09.68-.41,3.14-.5,3.43a4.78,4.78,0,0,1-1.85,2.26l-.47.14c-.24-.08-.92-.59-.67-2,.3-1.68,1.93-8.14,2.22-9.22s2.6-11,3.08-13.23,1.42-7.4,2-9.13a32.53,32.53,0,0,0,1.28-6.57,43.34,43.34,0,0,0,0-5.8,7.6,7.6,0,0,1,1.05-3.29,1.24,1.24,0,0,0,0-.32c0-.13,0-.31,0-.5,0-.39,0-.88,0-1.36s0-1,0-1.32c0-.13,0-.24,0-.34Zm-14.16,0,.08.12.14.21a.74.74,0,0,0,.14.17l.18.07.22,0,.59.06.58,0,.2,0,.14.07a1.41,1.41,0,0,0,.27.19l.71.42c.3.18.61.37.71.41l.39.21.41.23c.12.05,1.41,1.2,1.54,1.35s.05.18,0,.23a2.14,2.14,0,0,1-.61.21,3.81,3.81,0,0,1-.93.21c-1,.07-2-.82-2.43-.87a36.39,36.39,0,0,1-6.57-2.82q-.45-.26-.87-.55Z" transform="translate(-228.37 -223.36)" style="fill:#ff4600"/><path d="M382.83,372.71a2.27,2.27,0,0,0,1.34-1.1,4.63,4.63,0,0,0,.92-2.08c-.06-.49-.18-.92-1.1.12a6.88,6.88,0,0,0-1.59,2.2c-.18.61-.73,1.28-.37,1.22s.24-.18.79-.37m3.06.91c0-.26-.17-.4-.43-.3a2.13,2.13,0,0,0-.64.3Zm-20.69,0,0-.11,0-.12a7.06,7.06,0,0,1,1.12-.55l.13-.12.13-.13a2,2,0,0,1,.16.74l0,.29ZM426.5,369c-.95,1-2,2-2.44,2.39l-2.14,1.78-.52.44h-3.62l.31-.14a38.41,38.41,0,0,0,5.65-4l.47-.51ZM421,369q-.66.6-1.35,1.17a14.58,14.58,0,0,1-2.29,2c-.74.35-2.25.93-2.4,1a1.44,1.44,0,0,0-.28.37H412a4.92,4.92,0,0,0,.71-.3c.78-.43,1.38-.55,1.71-.79a2.79,2.79,0,0,0,1-1.27c0-.29.09-.71-.21-.7h-.82c-.23-.1,0-.31.3-.51s2.55-.81,2.84-.93l.19-.09Zm-14.69,0a4.72,4.72,0,0,1-.09.64c-.17.83-.46,2.45-.46,2.45a5.87,5.87,0,0,1-1.71.58c-.87.12-.42.79-.42.79l-.12.15h3.69c0-.37,0-.84.08-1.24.09-.82.18-.43.34-.55s.06-1,.15-1.22a3,3,0,0,1,.49-.92c.24-.28.4-.06.79-.46a1.59,1.59,0,0,0,.17-.22Zm-4.66,0a4,4,0,0,1,.7,1.3s.25.66.46.08a3.9,3.9,0,0,0,0-1.39ZM392,369q0,.82,0,1.64a5.46,5.46,0,0,1-.46,2.24c-.17.3-.5.44-.84.73h3.7c.1-.24.19-.45.26-.61a25,25,0,0,1,2.26-4Zm-14,0-.11.28-.1-.28H373.9a6.63,6.63,0,0,1,.62,1.09c.16.35,1,2.31,1.5,3.52h3.82a2.34,2.34,0,0,1,0-.3c0-.72-.18-2.89-.34-4.31Zm-10.19,0a6.32,6.32,0,0,0-.53.47l-.23.23-.35-.18a4.5,4.5,0,0,0-.62-.29,2.16,2.16,0,0,1-.38-.19v0Zm-21.75,0c.16.08.73.34,1,.43l.13.07.12.08a2.3,2.3,0,0,0,.37.22c.16.08.39.2.63.31a2.4,2.4,0,0,0,.83.23l.43,0h.88a1.51,1.51,0,0,0,.26,0l.26-.05h.19a2.52,2.52,0,0,0,.23.22l.29.22.54.37a2,2,0,0,1,.29.24l-1.57,0a1.56,1.56,0,0,0-.34.17.73.73,0,0,0-.27.34,1,1,0,0,0-.06.19.37.37,0,0,0,.08.32l.23.26a1.1,1.1,0,0,0,.31.24,1.06,1.06,0,0,0,.24.07l.3,0c.2,0,.4.05.51.08a2.21,2.21,0,0,1,.52.28,1.09,1.09,0,0,1,.24.25h-5.13a38.63,38.63,0,0,1-5.69-4.61Z" transform="translate(-228.37 -223.36)" style="fill:#ff4600"/><path d="M382.71,367.4a1.54,1.54,0,0,0,1.47-.43c.31-.43,1.28-1.59.49-1.47s-1.16-.24-1.47.24-1,1.59-.49,1.65M379.5,369c-.08-.76-.15-1.31-.15-1.31l-.67-.24a2,2,0,0,1-.31.8q-.2.37-.37.76Zm50.59-4.61c-.88,1.28-1.73,2.51-1.85,2.72s-.87,1-1.73,1.89h-2.29a16.58,16.58,0,0,0,1.85-2.2,2.34,2.34,0,0,0,.15-1.31c-.08-.15-.29-.09-.37-.24s-.25-.38,0-.49l.79-.37Zm-5.18,0c-.5.73-2,2.6-2.29,3A13.23,13.23,0,0,1,421,369h-3.31c.56-.3,2-1.14,2-1.14l.44-.39s0-.72-.43-.8-1.69-.11-1.69-.11-.23-.69,0-.78,3.42-1.24,3.71-1.36l.07,0Zm-9,0a1.63,1.63,0,0,0,.4,0Zm-12.39,0c0,.11.08.23.14.34a24.91,24.91,0,0,0,2.38,3,2,2,0,0,1,.3,1.27h2.92c.53-.78,1.73-3.13,2.77-4.61H407.1c-.41.38-.56.37-.93.29a1,1,0,0,1-.47-.28Zm-7.56,0-.12.25s-.33,1.16-.83,1.33a1.24,1.24,0,0,1-1.25-.33,1.31,1.31,0,0,0-.66-.33.51.51,0,0,0-.5.38q-.2,1-.29,2.08a2.46,2.46,0,0,1-.33,1V369h4.88a2.63,2.63,0,0,1,.73-.69c1-.54,2.08-1.12,3.29-.13a5.14,5.14,0,0,1,.79.82h1.17a7.07,7.07,0,0,0-.22-1.23c-.08-.17-1.08-1.92-1.24-2.42-.08-.23-.2-.61-.32-1Zm-21.27,0c0,.66.12,1-.42.43q-.19-.21-.36-.43H362.08c1.12,1,1.93,1.84,2,1.94a.91.91,0,0,0,.51.19c.25,0,.57,0,1,.07a.31.31,0,0,1,.32.4.87.87,0,0,1-.08.21L365.7,369h2.11l.13-.09c.22-.15.41-.31.68-.49a6.53,6.53,0,0,1,1.16-.6,2.65,2.65,0,0,1,1.09-.3,3.21,3.21,0,0,1,.49.06l.75.14A2.93,2.93,0,0,1,373.9,369h3.88q-.3-.85-.51-1.73-.35-1.45-.75-2.88Zm-17.93,0-.07.8c-.24-.17-.67-.45-1.26-.8Zm-13.59,0a1.3,1.3,0,0,0,.22.67,1.09,1.09,0,0,0,.27.31c.09.07.19.13.31.21a2.76,2.76,0,0,0,.73.3l.3.08.1,0,.14.08.16.12.18.12.17.09.14,0,.18,0,.48,0,.69,0,.44.27.55.32c.16.1.24.18.26.26a2.25,2.25,0,0,1,.09.44,3.57,3.57,0,0,1-1-.22,2.93,2.93,0,0,0-.47-.2.92.92,0,0,0-.86.07.81.81,0,0,0-.2.28,3,3,0,0,0-.09.29,2.79,2.79,0,0,0-.1.5,1,1,0,0,0,0,.23.29.29,0,0,0,.14.23h-4.19l-.18-.21a22.53,22.53,0,0,1-2-2.56c-.38-.56-.79-1.17-1.2-1.83h4.68Z" transform="translate(-228.37 -223.36)" style="fill:#ff4600"/><path d="M401.07,364.4a5.47,5.47,0,0,0-.34-.87,1.58,1.58,0,0,0-.83-.42l-1.25,0s-.46.66-.5.37.37-1,.37-1,.09-.42-.58-.37-.88-.12-1.13.42L396,364.4h5.09Zm-24.55,0a4.28,4.28,0,0,0-.16-.48c-.12-.24-.12-1.16-.49-1.16a2.51,2.51,0,0,0-.92.31s-.18-.18-.24.8c0,.19,0,.38,0,.54Zm56.21-4.61a11.64,11.64,0,0,1-.68,1.7c-.24.41-1.11,1.68-2,2.92h-3.43a7.76,7.76,0,0,0,1.77-1c.19-.31.7-.95.35-1.38a1.39,1.39,0,0,0-.39-.28,1.08,1.08,0,0,1,.31-.81c.35-.31,1-.31,1.35-.47a1.8,1.8,0,0,0,.55-.64Zm-5,0-.09.18c-.23.47-2.44,3.8-2.59,4.18a1.55,1.55,0,0,1-.15.25h-3.15a4.9,4.9,0,0,0,1.32-.89.46.46,0,0,0-.29-.7c-.32,0-.92-.18-1.1,0s-.21.37-.37.34a.9.9,0,0,1-.44-.21c-.15-.13-.35-.3-.28-.42a3.45,3.45,0,0,1,.87-.81,17.08,17.08,0,0,1,1.8-.79c.83-.37,1.87-.84,2.41-1.09Zm-8.61,0a1.33,1.33,0,0,0-.24.19l-.86.73s-.58.58-.92.95-.85.83-.85.83-.73.33-.82.7-.58,1.16.06,1.19l.43,0h.4a1.22,1.22,0,0,0,.64-.33c.52-.46.92-1.37,1.4-1.8s.92-1,1.28-1.31.61-.4.52-.67a.83.83,0,0,0-.36-.49Zm-3,0a36.6,36.6,0,0,0-4,4.49l-.08.12h-4.92a24.06,24.06,0,0,0,2.72-3.56,9.42,9.42,0,0,1,.84-1Zm-13.19,0a17.1,17.1,0,0,1,.32,2.62,7.79,7.79,0,0,0,.32,2h2.16a1.28,1.28,0,0,1-.22-.3,3.7,3.7,0,0,1-.4-1.89,14.06,14.06,0,0,1,.37-2.43Zm-42.53,0q.7.64,1.36,1.32a18,18,0,0,0,2.47,2.06c.57-.13,2.06-1.82,1.8-2.74-.05-.19-.34-.41-.72-.64h3.12c-.48.78-.31,1.23-.58,2-.37,1.1-.06,1,.73,1.28s.67.12.92.06a3.39,3.39,0,0,0,.8-.55,1.51,1.51,0,0,1,1.1-1.16c.92-.18,1.22,1,1.22,1s.72,1.1,1.35,1.89H362.08l-1.17-1.08a47.91,47.91,0,0,0-4.27-3.53Zm-7.79,0a4.84,4.84,0,0,1,.63.44,18.42,18.42,0,0,1,1.6,1.58c.5.55.92,1,1.07,1.17s.78.84.94,1l0,.39h-1.33l-.5-.29a13.19,13.19,0,0,1-2.23-1.89c-.42-.4-.84-.82-1.26-1.21s-.81-.73-1.25-1.07l-.19-.15Zm-9.47,0,.22.25-.27.1-.21,0h-.11l-.36-.17-.17-.08-.12,0-.23-.05a.81.81,0,0,0-.37,0l-.34.14-.13,0-.12.05a.35.35,0,0,0-.13.11,1.59,1.59,0,0,0,0,.83,3.79,3.79,0,0,0,.22.38.78.78,0,0,0,.34.32c.15.05,2.43,1.17,2.5,1.22l.31.17.56.3.55.31.18.11a.5.5,0,0,1,.09.21l-.66,0-.78,0-.28-.07a1,1,0,0,0-.25,0,.27.27,0,0,0-.26.17,1.21,1.21,0,0,0-.07.39H338.5a14.7,14.7,0,0,1-2-4.57v0h6.57Z" transform="translate(-228.37 -223.36)" style="fill:#ff4600"/><path d="M419.81,359.79a.56.56,0,0,0-.25-.06.85.85,0,0,0-.43.06Zm14.33-4.61c-.13.41-.26.8-.33,1-.16.59-.64,2.24-1.1,3.56H430.6c.3-.47.57-1,.57-1s.4-.44-.23-.31c-.84.18-1.24.12-1.24-.22s-.14-.51.25-.59a6.82,6.82,0,0,0,2.3-1.55,2.28,2.28,0,0,0,.24-.91Zm-3.6,0c-.46.7-1,1.52-1.12,1.65s-1.3,2.23-1.68,3h-2.07l.31-.16c.24-.15.5-1,.21-1.15s-1.59,0-1.62-.08-.2-.4,0-.47l1.14-.49s2-.82,2.24-1.27a3.42,3.42,0,0,0,.12-1v0Zm-7,0-1.78.72s-3.65,2.21-4.93,3.25c-.22.18-.46.39-.72.64h-5.42q1.48-1.68,3.09-3.24c.56-.54,1-1,1.46-1.37Zm-23.29,0c.82,1.31,2.46,4.08,2.65,4.57l0,0h2.55c.05-.21.11-.42.17-.62a6.42,6.42,0,0,1,2.36-3c.45-.33.95-.64,1.42-.94h-2.32c-.67.76-.91,1.38-1.66,1,0,0-.32-.45-.72-1Zm-32,0c-1,1.24-1.84,2.57-3.6,1.24L363,355.18h-3.09c1.08,1,2.07,1.84,2.3,2a10,10,0,0,0,1.4,1.6c.47.35,1.13.69,1.64,1h3.12a5.8,5.8,0,0,1,.76-.94c1.06-1.11,2.9-2.71,3.86-3.66Zm-15,0c1.61.77,3.79,2.19,4.64,2.61a15.57,15.57,0,0,1,2.48,2h-3.73q-.38-.27-.79-.51c-1.36-.8-2.37-1.44-3.11-1.88a4.08,4.08,0,0,0-1.55-.7c-.68,0-1.15.8-.71,1.62a2.66,2.66,0,0,0,1.17,1c.24.13.51.27.78.42l.15.09H350c-.76-.58-1.66-1.27-2.52-1.9a21.89,21.89,0,0,0-2.41-1.6c-.59-.3-1.21-.64-1.77-.9l-.47-.21Zm-13.94,0a3.25,3.25,0,0,0-.12.33,1.69,1.69,0,0,0,0,1,1.36,1.36,0,0,0,.56.67,10.36,10.36,0,0,1,.91.65c.39.33.9.69,1.32,1l.71.46.44.51h-6.57a31,31,0,0,0-.93-4.14c0-.1-.13-.26-.23-.47Z" transform="translate(-228.37 -223.36)" style="fill:#ff4600"/><path d="M415.22,355.18l.24-.19a15.19,15.19,0,0,1,5.37-2.47c2.51-.67,3.66-1,4.47-1.12a12.6,12.6,0,0,1,2.58-.11c1.05,0,1.86-.05,2.79,0a10.2,10.2,0,0,1,2.07.22,5.16,5.16,0,0,1,1.82.54c.36.57,0,1.86-.11,2.18s-.19.66-.29,1h-1.66c.06-.75-.11-1.52-.27-1.53h-.27a1.87,1.87,0,0,0-.74.5q-.32.52-.66,1h-2.47a2.28,2.28,0,0,0,.27-.38.49.49,0,0,0-.18-.45,3.89,3.89,0,0,1-.32-.24,7.87,7.87,0,0,0-1.86,0c-.17.08-1.38.58-2.47,1Zm-55.28,0c-1.34-1.21-2.81-2.58-3.09-2.95a7.42,7.42,0,0,0-2-1.66h3.31a32.42,32.42,0,0,0,4.93,4.61Zm-24.57,0a4.07,4.07,0,0,1-.44-2.51c.14-.78.94-1.14,2.13-1.2a32.41,32.41,0,0,1,5.22.42c1.77.28,3.4.67,4.52.95s4.62,1.56,6,2.13l.48.22H342.86a2.78,2.78,0,0,0-.91-.25c-.56,0-2.52,0-2.52,0s-.06.13-.13.29h-3.93Zm76.43-4.61a33.06,33.06,0,0,1-4.14,4.06,5.16,5.16,0,0,0-.56.55h2.32c.54-.33,1.06-.64,1.44-.91,1.05-.76,3.52-2.44,5.39-3.7Zm-16,0a7.34,7.34,0,0,1,.94.52,19.86,19.86,0,0,1,3.26,3.75l.22.34h4.47l-.3-.38c-.84-1.06-.76-1-1.62-2-.34-.42-1.39-1.5-1.47-2.18Zm-14.63,0a2.37,2.37,0,0,1-.13.94c-.21.43-.71,1.09-.31,1.23a1.25,1.25,0,0,0,1.31-.37,10,10,0,0,0,.88-1.8Zm-4,0a5.32,5.32,0,0,1,.8.22,3.1,3.1,0,0,1-.85,1.47c-.66.6-1,1.21-.8,1.62s.33,1,.8.65a9.42,9.42,0,0,0,1.87-2.1c.23-.4.62-1.24.94-1.85Zm-9.5,0a2.75,2.75,0,0,0,.49.13c.59.08,2.1-.17,2.22-.09,1.36.94-1,3.31-1.71,4q-.26.26-.5.55H373a4.11,4.11,0,0,0,.6-.67c.31-.55,1.46-2.57,1.46-2.57a8.74,8.74,0,0,1,1.71-1.38Z" transform="translate(-228.37 -223.36)" style="fill:#ff4600"/><path d="M414.62,346a17,17,0,0,1-2.83,4.61h4.45l1.72-1.13c1.62-1,1.58-.84,3-1.67a11,11,0,0,1,2.58-1l1.92-.43a6.62,6.62,0,0,1,1.09,0,1.62,1.62,0,0,0,1.14-.39h-5.88c-2.67,1.26-5.84,2.95-5.84,2.95a15.92,15.92,0,0,1,.85-2.14,5.87,5.87,0,0,0,.33-.81Zm-54.15,0a26.59,26.59,0,0,0,3.56,2.86,29,29,0,0,0,3.69,1.74h9.07l.12,0,.31,0H380a2.07,2.07,0,0,1,.47-.71c.23-.07.71-.17.71,0s0,.39,0,.75h1.74l.05-.13a1.59,1.59,0,0,0,.1-.58l6.91-.23,3.78.06s1.12.43,2,.88h5.5a.55.55,0,0,1,0-.21c.17-.6,1.84-.68,2.65-.68a28.75,28.75,0,0,0,3-1.53,17.12,17.12,0,0,0,2.69-2.18h-3.2a33.65,33.65,0,0,1-3.52,2,3.18,3.18,0,0,1-2.29-.37,4.48,4.48,0,0,0-1.74-.29,18.5,18.5,0,0,0-2,.14c-.7.06-3.77.74-4.32.8a22.93,22.93,0,0,1-3-.11c-1.22-.12-2.57-.2-2.72-.22s-3.44,0-6.17-.11a8.24,8.24,0,0,0-1.7.15s-1.56.22-1.67.22a3.2,3.2,0,0,1-2.07-.73,2.14,2.14,0,0,0-1.2-.54,4.56,4.56,0,0,0-1.56,0,4.46,4.46,0,0,0-1.27.54,2.82,2.82,0,0,1-1.2.55,15.89,15.89,0,0,1-2.69-.51A17.66,17.66,0,0,1,363.9,346Zm-7,0,.42,1.92a10,10,0,0,1-1.36-.08,12.43,12.43,0,0,1-3.33-.6,16.71,16.71,0,0,1-2.59-1.23h-4.34c1.75.94,5.29,2.81,5.93,3.08s5.37,1.21,6,1.31a2,2,0,0,1,.6.22h3.31a7.85,7.85,0,0,1-.73-1.06,27.8,27.8,0,0,1-1.69-3.54h-2.23Z" transform="translate(-228.37 -223.36)" style="fill:#ff4600"/><path d="M406.46,346l.32-.22c1.08-.79,2.71-3.66,3.19-4.72.27-.59.92-2.43,1.52-4.28h2.26c-.71,3.16-1.6,6.35-2.44,7.47a15.84,15.84,0,0,1-1.66,1.75Zm25.85-9.22a14.23,14.23,0,0,1-.76,2.18c-1.26,2.72-4.61,5.05-7,5.89-.67.23-1.64.66-2.68,1.15h5.88l.17-.19a4.12,4.12,0,0,1,2.18-1.31c.82-.24,1.69-.38,2-.47s1.36-.53,2.58-1.09,2.73-1.18,3.37-1.41a18.63,18.63,0,0,0,4.39-2.39q.9-.76,1.85-1.45a8.85,8.85,0,0,0,1.06-.9h-2.87a26.78,26.78,0,0,1-5.24,3c-2.32,1.12-4.7,2-4.7,2s.89-1.72,1.19-2.21a15.17,15.17,0,0,0,.95-1.46,3.54,3.54,0,0,1,1.94-1.32h-4.34Zm-16.31,0c-.17,2.2-.38,4.53-.59,6.18a12.4,12.4,0,0,1-.79,3h2.58a20.3,20.3,0,0,0,.6-2.17c.12-.74,2.25-1.22,2.82-1.37,4.24-1.81,5.63-2.47,7.86-5.67H425a30.8,30.8,0,0,1-4.59,2.39c-.48.15-1.35.38-1.6.43s-.9.14-1.09,0a4,4,0,0,1-.36-2,6.78,6.78,0,0,1,.06-.86Zm-59.71,0a37.6,37.6,0,0,0,2.87,7.73,8.81,8.81,0,0,0,1.31,1.49h3.44l-.09-.08a29.35,29.35,0,0,1-3.41-4.46,26.63,26.63,0,0,1-2.28-4.68Zm-13.66,0a16.27,16.27,0,0,0,3.55,4.31,14.84,14.84,0,0,0,4.52,2,15.43,15.43,0,0,1,2.22.61l.52,2.34h2.23c-1.14-3-1.3-5.44-1.46-9.22h-2c0,.95,0,1.61,0,1.77,0,.39-.09,1.42-.15,1.74,0,.16-.24.94-.72,1.12s-1.84-.65-2-.76a31.14,31.14,0,0,1-3.56-2.8,8,8,0,0,1-.8-1.08Zm-10,0a7.53,7.53,0,0,0,2.64.72c1.6.16,1.66,1.58,2.31,2.82l1.11,1.53h-3.25a11.27,11.27,0,0,1-4.69-1.36,11.55,11.55,0,0,1-4.62-3.71h-2.69a51.29,51.29,0,0,0,4.6,4.46,13.87,13.87,0,0,0,5.37,1.92,75.94,75.94,0,0,1,7.95,2.36l.9.48h4.34a16.34,16.34,0,0,1-5.18-4.31c-.9-1.44-2.14-3.17-3-4.91Z" transform="translate(-228.37 -223.36)" style="fill:#ff4600"/><path d="M425,336.74a8,8,0,0,0,1.61-1.17,62,62,0,0,0,3-7.69l.1-.36H432c-.1.39-.18.73-.23,1-.3,1.43-1.29,5.32-2.56,7.26-.23.35-.45.68-.66,1Zm-13.46,0c.49-1.48.95-3,1.16-3.82s.8-3.28,1.3-5.4h2c-.53.19-.67.81-.77,1.75-.07.73-.63,4.08-1.39,7.47Zm36-9.22c-.06.48-.15,1-.25,1.49a19.37,19.37,0,0,1-4.69,7.69l0,0h2.87a1.91,1.91,0,0,0,.31-.41,27.63,27.63,0,0,1,2-2.18c.87-1,1.67-1.94,2.07-2.4a4.52,4.52,0,0,1,1.34-1c.2-.11,1.17-.67,1.45-.87a12.86,12.86,0,0,0,2.22-2.35h-2.08l-.32.3c-1,.92-2.38,1.88-2.38,1.88l.2-2.18Zm-13.55,0q0,.35-.11.72a82.83,82.83,0,0,1-1.54,8.5h4.34q.72-.27,1.46-.47c2.63-.72,3.49-2.63,5.13-4.78a13.46,13.46,0,0,0,1.45-4h-3.14a29.23,29.23,0,0,1-4,5,6.21,6.21,0,0,1-2.39,1c-.62-.07-.69-.73-.47-1.92.09-.51.15-1.61.36-2.65q.15-.72.31-1.44Zm-17.68,0a.76.76,0,0,1,.17.44c0,.67.07,2,0,2.76-.05.62-.22,3.2-.44,6h1.37c.05-.42.13-.76.16-.91.09-.49.27-3.08.36-4.36s.11-2.43.17-3.94Zm-59.89,0c.33,1.49.62,3,.75,3.62s.12,1.54.18,2.36a12.69,12.69,0,0,0,.65,2.76c.05.17.1.33.15.48h-1.83l0-.13c-.43-2-.53-4.27-.78-5.55-.19-1-.6-1.42-1.39-1.38-.17,0-.08.08-.34.28.1,1.22.4,5.11.45,6.39v.39h-2c-.08-2.42-.27-6.7-.38-9.22Zm-17.31,0a15.87,15.87,0,0,0,2.16,6.79c.42.81.9,1.64,1.4,2.43H345q-.63-1-1.19-2c-.72-1.26-1.39-2.59-1.53-2.83s-1-2.74-1.58-4.42Zm-12.55,0a37.09,37.09,0,0,0,3,6.44,8.27,8.27,0,0,0,3.08,2.78h5.79a9.36,9.36,0,0,1-.92-2.69q-.49-3.25-.77-6.53h-2c.12,1.42.25,3,.27,3.15s.89,3.27-.22,4.07c-.25.18-.78,0-1.38-.22a12.53,12.53,0,0,1-3.08-3.38,26.54,26.54,0,0,1-1.51-3.62Zm-5.94,0a3.33,3.33,0,0,1,.75,1.66c.13,1.14.68,1.66.85,2.82,0,0-.89,1.23-2,.6s-2.38-2.6-3.25-3.76a13.75,13.75,0,0,1-.87-1.32h-1.93c.23.53.45,1,.63,1.33a22.26,22.26,0,0,0,4.39,4.75,22.81,22.81,0,0,0,2.21,1.49c.39.26.69.53,1,.76a10.28,10.28,0,0,1,.91.72l.16.15h2.69c-1.45-2-2-4.52-2.81-7.56a14.69,14.69,0,0,1-.31-1.66Z" transform="translate(-228.37 -223.36)" style="fill:#ff4600"/><path d="M414,327.52c.47-2,.89-3.9.94-4.22a13.06,13.06,0,0,1,2.27-5.65,22.85,22.85,0,0,1,2.76-2.87,32.24,32.24,0,0,1-.8,3.19c-.17.64-.64,2.73-.65,2.94,0,.38-.14,1.91-.25,3.3s-.09,1.86-.14,3v.27h-1.79a.15.15,0,0,0-.12-.05l-.23.05Zm-62.07,0c-.05-1.2-.09-2-.09-2l-.58-3.34c-.31-1.64-.65-3.29-.69-3.38a2.39,2.39,0,0,1-.07-1.38c.1-.27.23-.8.55-.65a6.51,6.51,0,0,1,2,1.81c.15.37,1.94,4.15,2.43,5.37a31.81,31.81,0,0,1,.93,3.57Zm-37.78,0c-.75-1.71-1.65-4.05-1.91-4.73-.17-.45-.75-1.69-1.23-2.69a13.93,13.93,0,0,1-1.05-2.36c-.11-.55-.12-1.27-.18-2a3.68,3.68,0,0,0-.55-2c-.34-.31-1.6-1.34-2.72-2.32a11.07,11.07,0,0,1-2.18-2.25l-.05-.1h2.95c1.16,1.08,2.52,2.11,3.33,2.86a10.4,10.4,0,0,1,.85,2.13c.3,1.09,2,7.14,2.47,8.37s1,2.45,1.2,3a13.75,13.75,0,0,0,1,2.09ZM460.9,309.09c-.59.85-1.32,2-1.61,2.35a9.11,9.11,0,0,0-.77,3c-.4,1.73-1.32,3.05-1.71,4.78a25,25,0,0,1-2.21,5.73,9.84,9.84,0,0,1-1.9,2.6h2.08a11.72,11.72,0,0,0,1.3-2,11.44,11.44,0,0,0,.33-1.64,3.31,3.31,0,0,1,.47-1.34,5.34,5.34,0,0,0,.44-1.31,15.33,15.33,0,0,1,.54-1.53,36,36,0,0,0,2-5.37,8.07,8.07,0,0,1,1.09-2.94c.21-.25.92-1.24,1.69-2.32Zm-13.88,0c.3.93,1.1,3.65,1.17,3.91s.29,5,.44,5.81a20.12,20.12,0,0,0,.62,2.47,1.06,1.06,0,0,0,.66.25c.34,0,.6-.35.72-.47a18.91,18.91,0,0,0,1.38-3.3q.61-1.67,1.24-3.34a40,40,0,0,0,.69-5.32h2a3.37,3.37,0,0,1,.09.72,33.84,33.84,0,0,1-.17,5.72,33.87,33.87,0,0,1-1.7,4.7,18.12,18.12,0,0,1-2.14,3.42,10.75,10.75,0,0,1-1.62,1.46l-.22,2.43H447.5a35.73,35.73,0,0,0-.08-7.81c0-.63.12-2.32-.59-1.87a2.56,2.56,0,0,0-1,2c-.18,2.17.1,3.18-.51,5.3-.17.57-.37,1.43-.6,2.34h-3.14c.07-.13.13-.26.18-.37a45.13,45.13,0,0,0,1.67-6.5c.13-.86-.84-8.43-1.05-9.55-.06-.33-.31-1.11-.56-2Zm-10.66,0c.2.77.14,6.44.14,6.82a24.6,24.6,0,0,0-.43,4c0,1.95-.54,6.75-.54,6.75q-.11.46-.2.92H434c.27-1.93.33-3.3.5-5.67,0-.37-.11-.8-.43-.85s-.41.33-.61,1-1,3.64-1.47,5.5h-2.31c.62-2.25,2.21-9.43,2.44-10.5a36,36,0,0,1,1.27-4.57c.3-.54,1-1.23,2.18-3a1.77,1.77,0,0,1,.32-.35Zm-101.05,0a10.3,10.3,0,0,1,1.24,1.73c.21.49,2.39,6.11,2.54,6.57s1.16,8.23,1.16,8.49a15.29,15.29,0,0,0,.49,1.64h-1.67q-.19-1.31-.48-2.6c-.32-1.4.14-3-1.36-3.59a1.62,1.62,0,0,0-.91-.08c.12,2.34.23,4.31.39,6.27h-2q-.09-1.09-.17-2.18c0-.61-.47-6.7-.47-7.55s0-4.1-.25-6.83a7.85,7.85,0,0,0-.53-1.88Zm-22,0c0,.36.06.79.11,1.32a29.66,29.66,0,0,0,1.46,6.83c.54,1.57,1.92,5.48,2.47,6.74a8.63,8.63,0,0,0,2.74,3,5,5,0,0,1,.52.55H323a31.25,31.25,0,0,1,0-7c.12-1.05.61-4.35.61-4.35.48-.14,1,1.42,1.11,2.3a33.72,33.72,0,0,0,1.19,7.09c.19.65.41,1.33.66,2h2.27c-.12-.33-.23-.67-.34-1a37.33,37.33,0,0,1-1.2-3.78,35.62,35.62,0,0,1-.65-5.08c0-.24-.1-1.15-.15-1.82a8.84,8.84,0,0,1,0-2c.11-.47.35-1.47.58-2.47.19-.83.49-1.44.65-2.28h-4.55l-.13.47c-.27,1-.51,1.89-.73,2.4a23.64,23.64,0,0,0-.72,3.3c-.24,1.36-.46,2.65-.62,3.16a11.76,11.76,0,0,0-.29,2.11c-.06.8-.12,1.58-.18,2.18,0,.16,0,.8-.4.9a.68.68,0,0,1-.8-.43c-.43-.94-.91-2.36-.91-2.36s-.91-3-1.09-3.59a26.8,26.8,0,0,1-.83-7.58c0-.18,0-.36,0-.54Zm75.53,2.1h-7V279.82h-14.2v-5.87h14.2V259.31h7v14.64h13.83v5.87H388.83Zm-58-43.5-15.5-2.8,1.54-1.58,15.32,2.88Zm33.4,5.91-25-4.5.15-1.47,24.88,4.68Zm5.83-3.15-3.68,0-40.43-14.87,1.62-1.26Z" transform="translate(-228.37 -223.36)" style="fill:#ff4600"/><path d="M375.71,270.44H373.3l-.06,0L336,248.84l1.69-1,.12.07Zm2.4,0-1.21,0-.07-.06L345.61,244l1.79-.84.12.1L378.36,270v.36Zm.26-1.08-24.1-28.74,1.85-.56,22.25,27.37ZM390,255.82l-1.47,0L392,235.71l1.85.15Zm-3.87,0-1.44,0-.25-20.28h1.88Zm-7.73,10.06-16.06-27.53,1.83-.47,14.23,25.39Zm0-6.47-8.27-22.63,1.87-.27,6.45,18.77Zm4.22-3.57-1.46,0-3.44-19.91,1.82-.08Zm23.58,18.33v-1.37l25.62-4.35.48,1.65Zm-13.91-14.1v-4l7.15-19.54,1.84.25Zm0,6.29v-2.52l0-.06,15.06-25.83,1.87.44Zm0,3.34V267.8l.06-.07,23.31-27.43,1.81.67-.23.27Zm1.81.75h-1.92l32.15-26.74,1.88.81-.32.25Zm4,0h-2.51l38.65-21.83,1.5,1.11Zm7.57,0h-3.92l42.61-15.2,1.59,1.35ZM435,419.4l-14.94-42,1.49-.91,15,42Zm20.76-16.06-22.22-39.57.58-2,.28.5,22.47,39.63Zm15.36-20.21-32.2-39.3,1.51-.83,31.64,38.45Zm9.51-23.05-29.56-25.58,1.23-.94.15.13,28.73,24.61Zm3.49-23.42-24.3-14.55.35-1.68L484,334.52Zm-2-22.12-15.93-6.19.56-1.54,14.83,5.58Zm-6.15-19.59-6.43-1.26V292l5.46,1Zm-9.05-16.37-8.43-.16.14-1.62,7,.05Zm-30.68-.4-30-.44v-1.29l29.51.15Zm4.13,9.92-34.15-6.62v-1.29l33.87,6.27Zm-33.73,51-14.3-40.83v-3.63l15.28,42.71Zm-11,4L391,314.75h1.4l4.81,28.11Zm41.72-45.77-36.77-14H404l33.63,12.56Zm-3.69,9-.11-.07-38.54-23h2.3l.06,0,37.86,22.32ZM429,315.36l-37-32,1.79,0,35.82,30.44Zm-13.78-.79-.13-.16-22.74-28v-1.86l24.15,29.27Zm-4,9.54-18.87-33.68V288L412,322.81Zm14.7,3.58-5-6.1.57-1.73,5.52,6.69ZM305.15,276.87l1.21-1.74h6.59l-.27,1.72ZM295.73,293l.9-2,3.25-.61.34,1.7Zm-6.68,20,.44-2.07,11.77-4.26.29,1.46Zm70.25,9.91-1-1.18,20.11-34.11V290l0,.06ZM354,314l-1.24-.62,25.58-29.35v1.77l-.06.07Zm-12.33-.79-.58-1.46,35.42-28.48h1.86Zm-5.18-7.87-1.51-.75,37.77-21.29h2.38ZM332.13,297v-1.6l33.71-12.09h3.56Zm-2.94-9.84.86-1.72.12,0,34.06-5.65v1.29Zm35-9.9-29.48-.19.29-1.47,29.18.41Zm-1.06,61-.94-1.52,0-.11,16.13-42.86,0,3.47Zm23,5h-1.48l.06-28.56H386Zm-12.51-.88H372l6.36-32.73.09,5.09h.22Zm-29.88-16.64-.91-1.06,5.1-5.84.61,1.38Zm-57,8.07,0-2.12.12-.07,21.79-12.31.44,1.41Zm2.45,22.38-.4-2,26.82-21.49.79,1Zm8.64,23.63-.88-1.73L297,378l30.18-34.79,1.1.7-.18.21Zm15.59,21.93-1.25-1.42.09-.15L335,361.74l.8,1.12-.08.14Zm20,16.2-1.6-1.1,15.7-41.34,1.16.73Z" transform="translate(-228.37 -223.36)" style="fill:#ff4600"/><path d="M385.15,228.67A105.55,105.55,0,1,0,490.7,334.22,105.67,105.67,0,0,0,385.15,228.67m0,216.41A110.86,110.86,0,1,1,496,334.22,111,111,0,0,1,385.15,445.08" transform="translate(-228.37 -223.36)" style="fill:#ff4600"/><path d="M397.57,372.23h-.38c-.15,0-.24,0-.28-.11s.18-.46.45-.77q.15-.17.28-.34c.29-.4.74-.44,1.31-.49l.19,0c.17,0,.26,0,.3.1s-.21.58-.51,1l-.18.23a1.27,1.27,0,0,1-1.18.45m42.79-72.84a18.4,18.4,0,0,0,.33,4c.12.79.29,2.22.58,3.63.14.68.34,1.41.52,2.08H447l-.06-.19c-.24-.7-2.31-6.57-2.58-7.15a52.74,52.74,0,0,1-2.22-6.42c-.06-.4-.43-.95-.65-.65a4.69,4.69,0,0,0-.76,2.14c-.17,1-.26,2-.4,2.58m-4.51,9.7h.51c-.07-.25-.3-.16-.51,0m-102.71-.84c-.08.13,0,.44.16.84h2a5.11,5.11,0,0,0-.9-.88c-.62-.41-1.07-.28-1.27,0m-9.51-1c-.11.37-.28,1.06-.49,1.82h4.55a5.16,5.16,0,0,0,.07-.51,50.26,50.26,0,0,0,.29-5.74c0-.51,0-2.11.11-3.38s.24-2.12.18-2.43a10.14,10.14,0,0,0-.07-1.45,2.84,2.84,0,0,0-.58-1.31c-.2-.17-.47.6-.54.8-.15.39-.85,3.08-.91,3.52,0,.25-.38,1.1-.65,1.89s-.51,1.61-.54,1.71-1.14,4.19-1.41,5.08m.6-22.12s-.94,1.2-1.49,1.79a6.72,6.72,0,0,0-1.1,1.3,35.8,35.8,0,0,0-3.42,6.86c-.39,1.58-1.41,6-2.2,7.38-.36.63-1.93.74-2.08-.37-.19-1.32,1-4.6,1.35-5.62a16.65,16.65,0,0,0,1.06-6.37c-.38-2.73-.73-3.14-.55-5.94a13.14,13.14,0,0,1,.37-2.45,10.58,10.58,0,0,0,1.28,1.76c1.94,1.92,6.79,1.65,6.79,1.65m10.43-15.73c.38-.57.6-.88,1-1.41a3,3,0,0,0-2,0c-.76.25-.8.42-1.67,1.2a18.77,18.77,0,0,0-2.89,3.83l-3.28,5.87a9.2,9.2,0,0,1-3,3.37,6,6,0,0,1-1.15.67,2.47,2.47,0,0,1-.46,0,3.24,3.24,0,0,1-1.33-.46,3.7,3.7,0,0,1-1.31-1.45,4.26,4.26,0,0,1-.11-2.18c.1-.38.51-1.73.5-1.74a13.54,13.54,0,0,1,.37-1.49,12.09,12.09,0,0,0,.51-1.6c.12-.93.29-3.48.32-5,0-.57-.06-1.18-.82-.53a4.9,4.9,0,0,0-1,1.08c-.2.32-.45,1-.83,1.9s-.95,2-1.38,2.87a26,26,0,0,0-1.15,3.49c-.39,1.33-.67,2.5-.87,3.09a29.41,29.41,0,0,0-.48,5.94c0,.14.17,1,.28,1.41s.23.68.36,1.2a8.42,8.42,0,0,1,.29,2.78,32.45,32.45,0,0,1-1,4c-.38,1.43-.87,3-.87,3s-.22.73-.55,1.74a9.43,9.43,0,0,1-1,2.48,1.16,1.16,0,0,1-1.51-.07c-.13-.14-.58-.68-.66-.8a16.07,16.07,0,0,1-1.34-2.07,9.23,9.23,0,0,1-.4-1.63c0-.44,0-1.06,0-1.67a18.85,18.85,0,0,0-.18-3,45,45,0,0,0-1.89-5.52c-.12-.24-.38-.92-.69-1.6a13.83,13.83,0,0,0-1-1.7c-.44-.69-1.06-1.21-1.53-.87-.21.15-.12.64-.21,1.23a21.1,21.1,0,0,0-.06,2.24c0,.82.25,4.46.22,5.53s.26,5.46.26,6.14.26,4.14.47,5.48a16,16,0,0,0,1.58,4h2.95a7.31,7.31,0,0,1-2-2.51,13.18,13.18,0,0,1-1.12-4.44,22.76,22.76,0,0,1,.35-5.59c.37-.87.89,0,1,.81a23.11,23.11,0,0,0,.51,4.09,6.68,6.68,0,0,0,2.9,4.18,7.42,7.42,0,0,0,3,.95,1.33,1.33,0,0,1,1.28,1.19c.06.34.09.73.14,1.32h3.15a21,21,0,0,1,.33-4.26c.21-1,.47-1.45.62-2.14a47.48,47.48,0,0,1,1.66-5.34,34.4,34.4,0,0,1,2.64-6.07,37.51,37.51,0,0,1,3.14-4c.3-.4,3.36-4.71,4.06-5.84a41.7,41.7,0,0,0,2.47-6,22.16,22.16,0,0,1,1.82-3.52c.84-1.39.84-1.64,1.49-2.61M455.77,302c-.26,0-.09-.1-.32-.09-.47,0-1.28-.61-1.28-.61l-.94-2.55s-1.18-3.3-1.54-4.27c-1.73-4.61-1.25-3.81-4.52-7.09-1.06-1.05-.43-1.68.6-1.53a18.35,18.35,0,0,0,2.06.26,5.58,5.58,0,0,0,1.79-1.62,6.59,6.59,0,0,0,1.37-3.08c0-.74-.51-2.47.17-2.65,1.53-.4,1.44,3.5,1.19,4.35-.08.27.2,3.64.17,3.84a26.78,26.78,0,0,0,0,4.35c.12,1.4.82,5.73.94,6.58.15,1,.6,4.1.32,4.1m11.45-18.66c0-1.12-.29-1.49-1.09-1.34-.53.1-.74.75-.87,1-.26.48-.48.83-.73,1.27a22.1,22.1,0,0,0-1.41,5.26c-.52,2.66-.62,5.61-1.49,10.16-.43,2.25-1.49,3-2.29,2.61a2.5,2.5,0,0,1-.91-.51c-.21-.27-.74-.64-.84-1.05a30.59,30.59,0,0,0-1.38-4.83,10.76,10.76,0,0,1-.43-3.16c0-1,0-2,0-2.47,0-1,.44-5.39.44-5.88s-.29-4.34-.29-5a7.64,7.64,0,0,0-.76-2.94c-.27-.58-.61-1.38-1-2.25a14.75,14.75,0,0,1-1.2-2.76c-.28-1.14-1-3.44-1.6-5.15a17,17,0,0,1-.8-2s-.59-1.62-.76-1.6a1.12,1.12,0,0,0-.54.4,6.6,6.6,0,0,0-.55.87,10.6,10.6,0,0,0-.62,3.34c0,.79.57,4.5.69,5.23a11.94,11.94,0,0,0,.33,1.38l.62,2a20.1,20.1,0,0,1,.87,3.56c0,1.12-.33,2.67-1.16,3.12a2.28,2.28,0,0,1-1.71,0c-.38-.2-.85-.48-1.27-.73a3.91,3.91,0,0,1-1.2-2c-.27-.82-.37-1.74-.51-2.11-.27-.72-1.83-3.7-2.29-4.43-.23-.37-.84-1.46-1.49-2.58a18.17,18.17,0,0,0-1.81-2.87,7,7,0,0,0-3.38-1.31c-.47-.08-.86-.13-1,.14a6.72,6.72,0,0,0-.25.94c-.09.34.31.88,1,2a32.45,32.45,0,0,1,2,3.66,45.63,45.63,0,0,1,2.91,8.28c.21,1.5,2.25,5.55,3.34,6.46s3.88,3.09,4.64,3.7,2.64,4.94,3.12,6.75c.24.92.8,2.81,1.38,4.61a29.82,29.82,0,0,1,1.09,4.07c0,.24,0,1-.11,1.89h2a1,1,0,0,1,.35-1.15c.07-.07.24-.06.46-.06s.35.19.51.16a8,8,0,0,0,1.59-.78,9.9,9.9,0,0,0,2.91-2.22l.85-1.19s2.51-1.57,1.7.17l-.51,1.36C463,307,462,307.49,461,309l-.09.13h1.69q1-1.33,1.87-2.69a17,17,0,0,0,1.81-4.75c0-.49.43-3.25.4-4.86s.24-7,.36-7.77.22-4.43.18-5.7M230.78,478.71l2.91,0v1.57l25.33,0,.42-.13v2.47a5.08,5.08,0,0,0-2.61,2c-.64,1.31-.85,1.18-.87,5.55s0,10.31,0,10.74v29s-.19,4.63.35,6.26c0,0-6.89,2.49-6.89,2.49l-7.94,6L230.3,530.33s-2.62-2.45-1.75-7.54a13.39,13.39,0,0,1,2.64-6.61c.64-.95.46-.54.46-.54l1.45.05-.4,1.63s-.22.41.51,1.6,12.56,15.51,12.56,15.51.4.73.43-.05-.11-14.45-.11-14.45l0-15.32-7.1,0-.65.92-2.15,7.21-.05-15.21h3.23v1.44l6.46,0,0-7.18-.4-2A8.7,8.7,0,0,0,248,488.2c2-1.49,2.18-1.65,2.18-1.65l-.16-.14s-5,1.11-5.73,1.22-2,.22-2.37.22l-7.56,0-.59.16-3,8.43Zm44.58,0,4.36,1.65-5.16,6.08-1.26-.4Zm8,0,4.41,1.62-5.15,6.14-1.32-.43Zm60.61,15.93s1.4-1.68,2.42-3.25,2.42-3.63,2.42-3.63l7.48,2.66-.86,2.49.05,6,6.24-11.11h2.1l3.23,12s.59,3.9-.21,6a15.08,15.08,0,0,1-3.12,5.26q-1,1-2,2L359.85,511s1.83-2,1.88-3.15-.48-2.76-1.13-5-1.72-5.48-1.72-5.48a12.82,12.82,0,0,0-.81,1.19c-.27.49-2.58,4.5-2.58,4.5v22.72l5.44,1.52.7-2.87,3,1-5.81,9.43-12.32-3.31s1.08-.82,1-7.32-.05-28.36-.05-28.36Zm24.86-.27,4.57-6.67,8.34,3.2a14.53,14.53,0,0,0-.91,4.23c0,1.84.05,5.15.05,5.15l7.32-12.58,10.92,3.9a15.93,15.93,0,0,0-1,5c0,2.55.11,4.61.11,4.61l7.15-13.61,10.82,3.9a16.15,16.15,0,0,0-1.56,5.21c-.05,4.12.11,30,.11,30l3.49,1-3.6,7-9.42-2.6s1.08-1.9,1.13-6.72,0-28.63,0-28.63l-2.8-1.08L398,505l.11,21.85,3,.92-3.82,6.94-8.56-2.28s1-1.41,1-6.67-.05-25.21-.05-25.21v-3.36l-3.77-1.52-5.11,8.62L381,527l2.53.81-3.61,6.83-8.61-2.28a14.12,14.12,0,0,0,1.13-5.75c.05-3.63-.05-30.52-.05-30.52Zm86.44,32.07c.14,0,4.06,1.27,4.06,1.27l-4.2,7-9.43-2.44s1.35-1.51,1.31-9.6-.06-26.21-.06-26.21l-3.77-1.46,4.52-7.37,8.93,3.52-1.4,3.25s-.11,32.07,0,32.07m-2.3-48.12,4.41,1.79L452,486.16l-1.18-.38Zm19.31-.05,4.79,3s1.94,1.36,3.34.05a16.82,16.82,0,0,0,1.45-1.41l1.61,1L478.91,487s-3.12,1.63-4.79,1.09-3.44-1.3-3.44-1.3l-.11,17.57.05,35.19a5.67,5.67,0,0,0-2.42.49,4.3,4.3,0,0,0-2.37,2.06,8.43,8.43,0,0,0-.43,2.28l-3.23-.05-.11-55.52-1-3.58,6.35-1.9Z" transform="translate(-228.37 -223.36)" style="fill:#ff4600"/><path d="M487.15,479.87l-.05,7.59,8.23-.05L491.93,494l-4.73.05-.11,32.31,4,1.14-4.14,7.1-9.47-2.6s1.34-2.44,1.34-7.27-.05-30.63-.05-30.63h-3.07l5.65-5.91Zm29.19,14.26a40.37,40.37,0,0,0,2.42-3.25q1.2-1.83,2.42-3.63l7.48,2.66-.86,2.49.05,6,6.24-11.11h2.1l3.23,12s.59,3.9-.22,6a15.09,15.09,0,0,1-3.12,5.26c-1.29,1.25-2,2-2,2l-1.83-1.84s1.83-2,1.88-3.14-.48-2.76-1.13-5-1.72-5.48-1.72-5.48a12.89,12.89,0,0,0-.81,1.19c-.27.49-2.58,4.5-2.58,4.5v22.72l5.43,1.52L534,524l3,1-5.81,9.43-12.32-3.31s1.08-.81,1-7.32-.06-28.36-.06-28.36ZM261.74,532.68l.54-2.64s0-21,0-22.22a13.19,13.19,0,0,0-.79-3.26l6.22-2.35s.07,0-.79-.51a16.12,16.12,0,0,1-4-3.19,24.44,24.44,0,0,1-1.3-2.1l7.19-3.62,4.14-4.89,14.6,5.4s-.39.72-.75,1.3a9,9,0,0,0-.68,1.85l.07,30.11.61.33,2.91.76-4.42,7.1-8-2.14s.5-5.07.54-5.62a10,10,0,0,0-.22-1.77l-1.84,2.86L272,534.82Zm9-37.18a7.61,7.61,0,0,0,.43,1.16,4.68,4.68,0,0,0,2.63,2.25,6.14,6.14,0,0,0,3.06.47,13.74,13.74,0,0,0,3.67-.91Zm0,30.26,3.56,1.16,3.49-6.05,0-19.72-7,3.41ZM292,495.49l6.62-2.93,4-4.82,15.75,5.33a5,5,0,0,0-1.15,2.68c-.11,1.52-.11,16.53-.11,16.53l.07,25-5.36,1.6-4.85,5s-5.32-2.61-8.31-2.65-3.42.07-4.24.73a11.17,11.17,0,0,0-1.87,2.54l-2-.72a25.9,25.9,0,0,1,3.63-5.36,14.13,14.13,0,0,1,4.85-3.62,9.06,9.06,0,0,1,2.16-.51l-.14-.4-9-2.43a19.26,19.26,0,0,0,.9-4.42c.11-2.1,0-15.55,0-15.55l.07-12.83Zm10.27,38.59,6.64,1.6V522.54Zm-1.1-38.41.07,30.19,2.95.87,4.71-8.55V504a9.86,9.86,0,0,0-.79-3.12l2-2.18Zm21.61,35.22.81-4.23s.06-21.14,0-25.1a22.63,22.63,0,0,0-.86-6.35l5.7-1.52,5.16-6,10.55,11-1.29,1.57L332,519.78l.11,5.26,8.5,2.17,1-2.66,2.64.81-5.38,9.54Zm9.15-33.24.05,18.38L338,504.71Zm89,33,.81-4.23s.05-21.14,0-25.1a22.69,22.69,0,0,0-.86-6.34l5.7-1.52,5.16-6,10.55,11-1.29,1.57-10.81,19.46.11,5.26,8.5,2.17,1-2.66,2.64.81-5.38,9.54ZM430,497.45l.05,18.38,6.08-11.33Z" transform="translate(-228.37 -223.36)" style="fill:#ff4600"/><path d="M495.48,530.45l.81-4.23s.05-21.15,0-25.1a22.63,22.63,0,0,0-.86-6.34l5.7-1.52,5.17-6,10.55,11-1.29,1.57-10.81,19.46.11,5.26,8.5,2.17,1-2.66,2.64.81-5.38,9.54Zm9.15-33.23.05,18.38,6.08-11.33Z" transform="translate(-228.37 -223.36)" style="fill:#ff4600"/></svg>